<svg width="1024" height="1024" viewBox="0 0 1024 1024" fill="none" xmlns="http://www.w3.org/2000/svg">
<g clip-path="url(#clip0_170_125)">
<mask id="mask0_170_125" style="mask-type:alpha" maskUnits="userSpaceOnUse" x="0" y="0" width="1024" height="1024">
<circle cx="512" cy="512" r="512" fill="black"/>
</mask>
<g mask="url(#mask0_170_125)">
<g clip-path="url(#clip1_170_125)">
<rect width="938" height="938" transform="translate(43 43)" fill="url(#paint0_linear_170_125)"/>
<path d="M902.645 368.962C902.188 361.949 899.378 342.653 896.983 336.511C896.656 335.684 896.199 335.226 895.545 334.682C892.54 337.295 891.124 341.128 888.707 344.156C887.683 345.441 887.509 347.161 885.222 346.638C884.939 339.19 884.852 331.698 888.816 325.404C889.839 324.272 890.885 323.139 890.689 322.311C890.536 322.072 890.384 321.832 890.231 321.593C887.335 316.366 883.567 311.879 879.32 307.872C879.298 307.85 879.255 307.828 879.233 307.785C878.601 307.197 877.97 306.609 877.316 306.021C873.113 302.231 868.496 298.877 863.596 295.915C863.356 295.763 863.138 295.61 862.899 295.458V295.502C852.924 289.599 841.86 285.244 830.949 281.846C814.136 276.619 799.544 275.421 782.796 272.329C768.052 269.585 754.2 262.158 740.98 255.385C729.873 249.7 723.579 243.058 709.728 244.386C694.156 245.867 689.713 253.054 671.266 247.849C652.667 242.622 645.262 233.562 630.692 223.13C581.907 188.24 515.002 168.922 457.157 192.03L455.306 191.856C442.936 182.687 425.6 182.447 411.509 187.609C409.636 188.284 408.285 189.917 406.739 190.44C403.908 191.42 381.497 188.023 375.639 187.696C334.411 185.322 290.331 208.364 259.274 234.499C228.696 260.22 203.89 295.915 188.732 334.028C188.536 334.508 188.318 334.987 188.144 335.488C177.233 363.648 176.667 391.438 164.166 419.293C146.285 459.192 116.753 499.091 90.5963 534.046C87.9393 537.596 86.1316 542.475 82.3639 544.87L69.2094 554.366C32.9911 579.956 -75.468 652.959 -223.216 719.537C-406.094 801.97 484.969 1386.65 484.969 1386.65C484.969 1386.65 349.003 1135.56 314.026 801.339C313.765 798.965 314.549 796.134 313.874 793.869C313.329 792.039 298.258 783.197 295.209 780.975C227.39 731.951 198.25 635.558 194.373 555.237C193.524 537.509 195.07 519.106 194.416 501.312L196.507 510.634C196.812 520.347 198.446 530.082 200.144 539.665C214.235 619.115 252.828 695.254 318.97 743.058C319.732 741.861 320.277 739.508 320.516 738.071C324.698 711.544 330.665 689.504 340.727 664.654C341.686 662.28 345.061 657.576 344.473 655.529L315.115 630.396C269.096 584.246 237.735 522.503 237.953 456.078V435.976C239.325 435.671 239.695 438.001 239.869 438.938C240.631 443.272 240.544 448.586 241.285 452.767C253.633 522.786 296.777 582.352 359.74 615.173C363.443 616.305 374.398 612.516 378.557 611.035C399.944 603.456 418.609 588.689 433.745 572.094C404.648 566.932 376.205 557.175 351.791 540.34C302.767 506.539 275.042 445.036 287.151 385.579C287.521 383.815 288.218 381.659 289.634 380.439L291.354 396.142C299.042 441.769 337.156 497.653 374.005 524.659C399.008 542.975 430.587 556.957 462.058 549.226C463.648 548.181 461.862 547.266 460.664 546.83C447.357 541.799 436.772 538.358 424.315 530.932C369.519 498.22 336.459 435.867 352.684 371.706C354.296 365.347 356.778 357.637 360.35 352.149L356.517 377.717C351.268 422.168 370.172 475.091 404.953 503.512C419.872 515.708 444.939 519.084 463.168 524.746C504.57 537.618 542.422 569.132 582.822 585.727C611.461 597.488 652.58 600.472 683.397 601.583C712.559 602.628 744.073 597.662 772.364 602.889C795.798 607.223 805.882 621.641 825.744 631.137C832.452 634.338 842.165 639.26 849.222 636.276C852.031 632.247 843.32 620.792 840.619 617.329C825.853 598.337 797.105 571.702 776.11 559.941C737.125 538.141 689.735 530.845 649.509 509.175C621.37 494.016 598.655 470.19 569.428 457.58C549.021 448.782 529.79 447.126 508.817 442.03C496.381 439.003 487.365 434.124 486.08 420.142C484.882 406.923 494.225 383.597 508.49 380.679C510.559 380.265 512.65 380.592 514.741 380.396C532.817 378.784 553.006 385.1 571.475 386.929C589.9 388.759 606.474 386.69 624.681 385.884C676.232 383.641 727.869 387.256 779.072 379.285C804.923 375.256 829.403 366.348 854.688 378.937C870.565 386.842 884.264 400.912 902.645 403.351C902.079 392.113 903.429 380.178 902.667 369.027L902.645 368.962ZM398.333 241.925C412.467 234.608 436.772 234.891 444.787 250.855C429.128 246.325 405.258 244.909 397.461 262.833C390.623 278.558 401.665 296.787 414.384 305.803C416.801 307.524 420.612 307.937 421.941 310.747C413.687 310.877 406.195 307.981 400.031 303.211C397.287 300.925 394.87 298.267 392.997 295.523L392.714 295.937C389.207 291.472 386.528 286.311 384.917 280.844C380.605 266.144 383.915 249.396 398.333 241.925ZM612.724 369.506C610.089 369.681 608.434 370.203 606.125 370.552C562.589 376.911 520.861 366.61 477.804 363.038C456.983 361.317 427.887 359.444 413.12 377.717C391.233 404.81 415.625 432.752 438.863 447.758L455.524 457.733C433.941 452.027 409.897 437.587 395.697 420.164C371.457 390.414 387.487 358.704 422.594 351.277C459.618 343.437 493.506 356.504 529.246 362.711C557.406 367.59 585.762 367.72 614.336 367.372C615.926 368.701 614.423 369.419 612.702 369.528L612.724 369.506ZM613.378 302.558C597 323.183 558.996 327.713 534.473 317.912C530.03 316.017 525.935 313.622 522.429 310.725C518.008 307.088 514.784 302.863 512.541 297.592C512.519 297.592 512.498 297.592 512.476 297.592C507.793 285.026 513.195 270.782 528.854 262.594C548.999 252.053 574.655 256.474 595.976 260.633L590.575 256.8C555.315 237.265 517.834 245.933 488.846 271.523C487.626 272.59 487.06 274.136 485.034 273.701C494.617 251.813 518.226 239.094 541.137 235.675C562.916 232.43 592.47 237.504 608.739 253.338C622.002 266.252 625.313 287.574 613.399 302.58L613.378 302.558ZM806.382 307.545C771.057 302.297 732.225 307.589 697.967 300.641C695.136 300.075 692.065 299.269 689.038 298.224C687.448 297.527 685.88 296.83 684.965 296.634C676.754 293.019 669.611 287.226 668.87 278.057L688.166 287.596C703.259 292.344 718.962 295.262 734.664 296.59C762.934 298.986 793.076 294.478 819.036 307.959C820.277 308.591 821.998 309.135 822.259 310.703C816.923 310.202 811.675 308.308 806.404 307.524L806.382 307.545ZM856.43 354.261C853.577 350.58 851.835 345.441 848.263 341.738C845.628 339.016 841.773 336.555 838.615 334.028C838.615 334.028 838.593 334.028 838.572 334.007C837.962 333.506 837.352 333.027 836.808 332.526C834.347 330.282 830.601 327.451 829.817 324.075C829.817 323.335 830.1 322.769 830.906 322.137C834.804 319.698 848.743 326.297 851.617 329.782C852.576 330.936 855.058 332.395 855.734 334.028C858.456 340.889 859.349 350.602 860.198 356.461C858.347 356.809 857.432 355.524 856.43 354.239V354.261Z" fill="#404140"/>
<path d="M841.577 382.182C841.098 380.483 835.414 379.612 833.454 379.416C830.056 379.068 826.594 379.46 823.218 379.329L831.929 408.73C837.701 403.046 843.908 390.24 841.599 382.182H841.577Z" fill="#404140"/>
<path d="M815.312 394.857L816.684 380.418L798.194 382.618L807.994 409.82L815.312 394.857Z" fill="#404140"/>
<path d="M789.547 400.628C791.355 394.9 792.204 389.782 791.681 383.706L773.191 386.973C772.712 387.408 777.525 397.361 778.07 398.951C779.747 403.721 780.204 410.777 784.059 414.197C785.017 409.471 788.088 405.289 789.547 400.628Z" fill="#404140"/>
<path d="M765.569 388.062L747.079 390.24L757.424 416.375C760.843 407.228 766.636 398.277 765.569 388.062Z" fill="#404140"/>
<path d="M677.996 415.286L680.718 418.553C683.658 409.863 689.06 402.088 688.341 392.418H669.851L677.996 415.286Z" fill="#404140"/>
<path d="M849.331 414.197C856.148 408.948 861.897 402.567 864.467 394.182L847.153 383.706C849.418 393.724 849.549 403.96 849.331 414.197Z" fill="#404140"/>
<path d="M655.912 416.027C659.919 409.275 662.685 400.237 663.317 392.396H644.827L653.538 418.531C654.889 418.444 655.346 417.007 655.912 416.027Z" fill="#404140"/>
<path d="M711.165 391.329L692.675 392.418L701.386 418.531L707.659 406.857L711.165 391.329Z" fill="#404140"/>
<path d="M729.677 414.763C733.183 407.271 736.886 399.823 737.278 391.329H718.788L727.499 417.464C729.089 417.333 729.198 415.83 729.699 414.763H729.677Z" fill="#404140"/>
<path d="M886.66 405.681C882.478 403.634 877.186 402.545 873.788 398.951C870.434 398.69 873.244 400.127 873.244 400.585V427.264C875.335 427.765 875.335 426.524 876.315 425.435C879.865 421.514 888.358 413.195 888.489 408.142C888.533 406.618 887.857 406.269 886.638 405.681H886.66Z" fill="#404140"/>
<path d="M813.961 581.895C814.854 582.658 820.386 586.992 821.018 586.251C822.956 576.364 821.018 567.303 817.751 557.939C815.137 557.416 816.03 558.265 815.377 559.354C812.372 564.32 809.018 568.806 805.838 573.619C805.969 574.186 812.764 580.894 813.961 581.895Z" fill="#404140"/>
<path d="M778.07 529.625L767.682 549.683L780.771 556.326C781.381 557.306 782.883 555.498 782.97 555.194C783.754 552.275 782.97 542.758 782.97 538.859C782.97 538.032 778.876 529.603 778.07 529.625Z" fill="#404140"/>
<path d="M802.571 556.282C802.135 551.6 799.674 547.353 799.282 542.692L796.103 542.758L786.237 560.116L800.916 569.916C803.181 569.981 802.767 558.351 802.571 556.282Z" fill="#404140"/>
<path d="M837.918 604.741C840.162 605.046 839.269 604.567 839.617 603.216C841.817 594.614 842.514 588.363 839.53 579.717L824.307 591.151L837.897 604.763L837.918 604.741Z" fill="#404140"/>
<path d="M706.744 512.812C706.548 511.069 704.348 503.447 703.477 502.445L700.319 502.401L690.497 520.347C690.954 522.002 705.917 527.316 706.809 526.358C706.548 521.937 707.223 517.189 706.722 512.833L706.744 512.812Z" fill="#404140"/>
<path d="M725.322 532.892C725.67 524.42 725.626 516.754 722.055 508.935C720.16 508.543 719.877 509.458 718.962 510.721C716.414 514.271 711.949 521.698 709.902 525.618C709.379 526.62 708.683 527.143 709.009 528.537L725.322 532.892Z" fill="#404140"/>
<path d="M743.812 539.426C745.467 530.758 744.661 523.309 740.545 515.469C737.997 514.968 738.824 515.708 738.171 516.863C735.688 521.175 731.202 527.186 729.459 531.019C728.828 532.391 728.349 533.48 728.61 535.07L743.833 539.426H743.812Z" fill="#404140"/>
<path d="M756.356 525.248L747.079 541.582C751.805 541.909 755.899 545.023 760.429 546.199C761.583 546.504 761.605 547.659 762.868 545.96C763.957 540.363 763.718 533.829 761.758 528.515C760.778 525.88 757.685 519.716 756.356 525.248Z" fill="#404140"/>
<path d="M582.495 266.144L565.529 290.057L561.152 261.766C542.509 259.131 513.848 277.621 527.612 298.072C538.502 314.231 563.395 316.78 580.252 309.723C584.02 308.155 587.178 306.195 589.769 304.017C591.272 302.906 592.622 301.621 593.624 300.032C602.162 289.099 598.633 274.463 582.495 266.144Z" fill="#404140"/>
</g>
</g>
<circle cx="512" cy="512" r="488.5" stroke="#404140" stroke-width="47"/>
</g>
<defs>
<linearGradient id="paint0_linear_170_125" x1="469" y1="331.598" x2="469" y2="938" gradientUnits="userSpaceOnUse">
<stop stop-color="#FFE91E"/>
<stop offset="1" stop-color="#FFE600"/>
</linearGradient>
<clipPath id="clip0_170_125">
<rect width="1024" height="1024" fill="white"/>
</clipPath>
<clipPath id="clip1_170_125">
<rect width="938" height="938" fill="white" transform="translate(43 43)"/>
</clipPath>
</defs>
</svg>
