<svg width="1024" height="1024" viewBox="0 0 1024 1024" fill="none" xmlns="http://www.w3.org/2000/svg">
<g clip-path="url(#clip0_147_265)">
<rect width="1024" height="1024" fill="url(#paint0_linear_147_265)"/>
<path d="M938.462 355.848C937.963 348.192 934.895 327.127 932.28 320.422C931.923 319.518 931.424 319.019 930.711 318.425C927.43 321.278 925.884 325.462 923.245 328.767C922.128 330.17 921.938 332.048 919.441 331.477C919.132 323.346 919.037 315.167 923.364 308.296C924.482 307.06 925.623 305.823 925.409 304.92C925.242 304.658 925.076 304.397 924.91 304.135C921.747 298.429 917.634 293.531 912.998 289.157C912.974 289.133 912.927 289.109 912.903 289.062C912.213 288.42 911.524 287.778 910.811 287.136C906.222 282.999 901.181 279.337 895.832 276.104C895.57 275.937 895.333 275.771 895.071 275.605V275.652C884.182 269.209 872.104 264.454 860.192 260.745C841.837 255.039 825.908 253.731 807.624 250.355C791.528 247.359 776.406 239.252 761.975 231.857C749.849 225.652 742.978 218.4 727.857 219.851C710.857 221.467 706.007 229.313 685.869 223.631C665.564 217.925 657.48 208.034 641.574 196.645C588.317 158.557 515.278 137.468 452.13 162.694L450.109 162.504C436.604 152.494 417.679 152.232 402.296 157.867C400.251 158.604 398.777 160.387 397.089 160.958C393.998 162.028 369.533 158.319 363.137 157.962C318.13 155.371 270.008 180.526 236.103 209.056C202.722 237.135 175.642 276.104 159.094 317.711C158.88 318.234 158.642 318.757 158.452 319.304C146.54 350.046 145.922 380.384 132.275 410.793C112.755 454.35 80.5152 497.907 51.9605 536.067C49.0599 539.943 47.0865 545.269 42.9733 547.884L28.6128 558.25C-10.9262 586.187 -129.329 665.883 -290.624 738.565C-490.268 828.556 482.491 1466.84 482.491 1466.84C482.491 1466.84 334.059 1192.73 295.876 827.867C295.59 825.275 296.446 822.184 295.709 819.712C295.115 817.715 278.662 808.062 275.333 805.636C201.296 752.117 169.484 646.886 165.252 559.201C164.325 539.848 166.013 519.757 165.299 500.333L167.582 510.509C167.915 521.113 169.698 531.74 171.552 542.202C186.935 628.935 229.066 712.055 301.273 764.243C302.105 762.935 302.699 760.367 302.961 758.798C307.526 729.839 314.04 705.778 325.025 678.65C326.071 676.059 329.756 670.923 329.114 668.688L297.064 641.251C246.826 590.87 212.589 523.466 212.827 450.95V429.005C214.325 428.673 214.729 431.217 214.919 432.239C215.751 436.97 215.656 442.772 216.465 447.337C229.946 523.775 277.045 588.802 345.781 624.632C349.823 625.868 361.782 621.731 366.323 620.115C389.671 611.841 410.047 595.721 426.571 577.604C394.806 571.969 363.755 561.317 337.103 542.939C283.584 506.039 253.317 438.896 266.536 373.988C266.941 372.063 267.701 369.709 269.247 368.377L271.125 385.52C279.518 435.33 321.125 496.338 361.354 525.82C388.648 545.815 423.123 561.079 457.479 552.639C459.215 551.498 457.265 550.499 455.957 550.024C441.43 544.532 429.875 540.775 416.276 532.668C356.456 496.956 320.365 428.887 338.078 358.843C339.837 351.901 342.547 343.484 346.447 337.493L342.262 365.405C336.532 413.932 357.169 471.707 395.139 502.734C411.426 516.048 438.791 519.734 458.692 525.915C503.889 539.967 545.211 574.37 589.315 592.487C620.581 605.326 665.469 608.583 699.112 609.796C730.947 610.937 765.351 605.516 796.235 611.222C821.818 615.954 832.826 631.693 854.51 642.06C861.833 645.555 872.437 650.928 880.14 647.671C883.207 643.272 873.697 630.766 870.749 626.986C854.629 606.253 823.245 577.176 800.325 564.337C757.766 540.537 706.03 532.572 662.117 508.916C631.398 492.368 606.6 466.357 574.693 452.591C552.416 442.986 531.422 441.179 508.526 435.615C494.95 432.31 485.107 426.984 483.704 411.72C482.396 397.289 492.596 371.825 508.169 368.639C510.428 368.187 512.71 368.544 514.993 368.33C534.726 366.57 556.766 373.465 576.928 375.463C597.043 377.46 615.136 375.201 635.012 374.321C691.289 371.872 747.662 375.819 803.558 367.117C831.78 362.719 858.504 352.994 886.108 366.737C903.44 375.367 918.395 390.727 938.462 393.389C937.844 381.121 939.318 368.092 938.485 355.919L938.462 355.848ZM387.911 217.164C403.342 209.175 429.875 209.484 438.625 226.912C421.53 221.967 395.472 220.421 386.96 239.989C379.495 257.155 391.549 277.055 405.434 286.898C408.073 288.776 412.234 289.228 413.684 292.295C404.673 292.438 396.494 289.276 389.766 284.069C386.77 281.572 384.131 278.672 382.086 275.676L381.777 276.128C377.949 271.254 375.025 265.619 373.266 259.651C368.558 243.602 372.172 225.319 387.911 217.164ZM621.959 356.442C619.083 356.632 617.276 357.203 614.755 357.583C567.228 364.526 521.674 353.28 474.669 349.381C451.939 347.502 420.175 345.458 404.055 365.405C380.161 394.982 406.789 425.487 432.158 441.868L450.346 452.757C426.785 446.528 400.536 430.765 385.035 411.744C358.572 379.267 376.071 344.649 414.398 336.542C454.816 327.982 491.811 342.248 530.827 349.024C561.569 354.35 592.525 354.492 623.719 354.112C625.455 355.562 623.814 356.347 621.936 356.466L621.959 356.442ZM622.673 283.355C604.793 305.871 563.305 310.816 536.533 300.117C531.683 298.049 527.213 295.434 523.385 292.271C518.559 288.301 515.04 283.688 512.591 277.935C512.567 277.935 512.544 277.935 512.52 277.935C507.408 264.216 513.305 248.667 530.399 239.727C552.392 228.22 580.4 233.046 603.676 237.587L597.78 233.403C559.287 212.076 518.369 221.539 486.723 249.475C485.392 250.64 484.774 252.328 482.562 251.853C493.024 227.958 518.797 214.073 543.809 210.34C567.584 206.798 599.848 212.337 617.609 229.622C632.088 243.721 635.702 266.998 622.697 283.379L622.673 283.355ZM833.373 288.8C794.809 283.07 752.417 288.848 715.018 281.263C711.927 280.645 708.574 279.765 705.27 278.624C703.534 277.863 701.822 277.102 700.823 276.888C691.86 272.942 684.062 266.617 683.253 256.608L704.319 267.022C720.795 272.205 737.937 275.391 755.08 276.841C785.941 279.456 818.846 274.535 847.187 289.252C848.542 289.941 850.42 290.536 850.706 292.248C844.88 291.701 839.151 289.632 833.397 288.776L833.373 288.8ZM888.01 339.799C884.895 335.781 882.993 330.17 879.094 326.128C876.217 323.156 872.009 320.469 868.561 317.711C868.561 317.711 868.537 317.711 868.514 317.688C867.848 317.141 867.182 316.618 866.588 316.071C863.901 313.622 859.812 310.531 858.956 306.846C858.956 306.037 859.265 305.419 860.145 304.73C864.4 302.067 879.617 309.271 882.755 313.075C883.801 314.335 886.512 315.928 887.249 317.711C890.221 325.201 891.196 335.805 892.123 342.2C890.102 342.581 889.103 341.178 888.01 339.775V339.799Z" fill="url(#paint1_linear_147_265)"/>
<path d="M871.795 370.279C871.272 368.425 865.066 367.474 862.926 367.26C859.217 366.879 855.437 367.307 851.752 367.165L861.262 399.262C867.563 393.056 874.339 379.076 871.819 370.279H871.795Z" fill="url(#paint2_linear_147_265)"/>
<path d="M843.121 384.117L844.619 368.354L824.434 370.755L835.133 400.451L843.121 384.117Z" fill="url(#paint3_linear_147_265)"/>
<path d="M814.994 390.417C816.968 384.164 817.895 378.577 817.324 371.944L797.139 375.51C796.616 375.985 801.87 386.851 802.464 388.587C804.295 393.793 804.794 401.497 809.003 405.23C810.049 400.07 813.401 395.505 814.994 390.417Z" fill="url(#paint4_linear_147_265)"/>
<path d="M788.817 376.699L768.632 379.076L779.925 407.607C783.658 397.621 789.982 387.85 788.817 376.699Z" fill="url(#paint5_linear_147_265)"/>
<path d="M693.215 406.418L696.187 409.985C699.397 400.498 705.293 392.01 704.509 381.454H684.323L693.215 406.418Z" fill="url(#paint6_linear_147_265)"/>
<path d="M880.259 405.23C887.701 399.5 893.978 392.533 896.783 383.38L877.881 371.944C880.354 382.88 880.497 394.055 880.259 405.23Z" fill="url(#paint7_linear_147_265)"/>
<path d="M669.107 407.227C673.481 399.856 676.501 389.989 677.191 381.43H657.005L666.515 409.961C667.989 409.866 668.489 408.297 669.107 407.227Z" fill="url(#paint8_linear_147_265)"/>
<path d="M729.426 380.265L709.24 381.454L718.75 409.961L725.598 397.217L729.426 380.265Z" fill="url(#paint9_linear_147_265)"/>
<path d="M749.635 405.848C753.463 397.669 757.505 389.538 757.933 380.265H737.747L747.257 408.796C748.993 408.653 749.112 407.013 749.659 405.848H749.635Z" fill="url(#paint10_linear_147_265)"/>
<path d="M921.01 395.933C916.445 393.699 910.668 392.51 906.959 388.587C903.298 388.301 906.365 389.871 906.365 390.37V419.495C908.647 420.042 908.647 418.687 909.717 417.498C913.592 413.218 922.865 404.136 923.008 398.62C923.055 396.956 922.318 396.575 920.987 395.933H921.01Z" fill="url(#paint11_linear_147_265)"/>
<path d="M841.647 588.303C842.622 589.135 848.661 593.866 849.35 593.058C851.466 582.264 849.35 572.373 845.784 562.15C842.931 561.579 843.906 562.506 843.192 563.695C839.911 569.116 836.25 574.014 832.779 579.268C832.921 579.886 840.339 587.209 841.647 588.303Z" fill="url(#paint12_linear_147_265)"/>
<path d="M802.465 531.241L791.124 553.138L805.413 560.39C806.079 561.46 807.719 559.486 807.814 559.154C808.67 555.968 807.814 545.578 807.814 541.322C807.814 540.418 803.345 531.217 802.465 531.241Z" fill="url(#paint13_linear_147_265)"/>
<path d="M829.212 560.342C828.737 555.231 826.05 550.594 825.622 545.506L822.151 545.578L811.38 564.527L827.405 575.226C829.878 575.297 829.426 562.601 829.212 560.342Z" fill="url(#paint14_linear_147_265)"/>
<path d="M867.8 613.243C870.249 613.576 869.275 613.053 869.655 611.579C872.056 602.188 872.817 595.364 869.56 585.925L852.941 598.407L867.777 613.267L867.8 613.243Z" fill="url(#paint15_linear_147_265)"/>
<path d="M724.599 512.886C724.385 510.984 721.984 502.662 721.033 501.569L717.585 501.521L706.863 521.112C707.362 522.919 723.696 528.721 724.671 527.675C724.385 522.848 725.122 517.665 724.575 512.91L724.599 512.886Z" fill="url(#paint16_linear_147_265)"/>
<path d="M744.88 534.807C745.26 525.559 745.213 517.189 741.314 508.654C739.245 508.226 738.936 509.225 737.938 510.604C735.156 514.479 730.282 522.587 728.047 526.866C727.476 527.96 726.715 528.53 727.072 530.052L744.88 534.807Z" fill="url(#paint17_linear_147_265)"/>
<path d="M765.066 541.94C766.873 532.477 765.993 524.346 761.499 515.787C758.717 515.24 759.621 516.048 758.908 517.308C756.197 522.016 751.299 528.578 749.397 532.762C748.708 534.26 748.185 535.449 748.47 537.185L765.089 541.94H765.066Z" fill="url(#paint18_linear_147_265)"/>
<path d="M778.76 526.462L768.632 544.294C773.791 544.65 778.261 548.05 783.206 549.334C784.466 549.667 784.49 550.927 785.869 549.072C787.058 542.962 786.796 535.829 784.657 530.028C783.587 527.151 780.211 520.423 778.76 526.462Z" fill="url(#paint19_linear_147_265)"/>
<path d="M588.959 243.602L570.438 269.708L565.659 238.823C545.307 235.947 514.018 256.132 529.044 278.458C540.932 296.099 568.108 298.881 586.51 291.178C590.623 289.466 594.071 287.326 596.9 284.948C598.54 283.736 600.015 282.333 601.108 280.597C610.428 268.662 606.577 252.685 588.959 243.602Z" fill="url(#paint20_linear_147_265)"/>
</g>
<defs>
<linearGradient id="paint0_linear_147_265" x1="512" y1="362" x2="512" y2="1024" gradientUnits="userSpaceOnUse">
<stop stop-color="#FFE91E"/>
<stop offset="1" stop-color="#FFE600"/>
</linearGradient>
<linearGradient id="paint1_linear_147_265" x1="568" y1="122" x2="128" y2="1390" gradientUnits="userSpaceOnUse">
<stop stop-color="#414241"/>
<stop offset="1" stop-color="#3E3E3E"/>
</linearGradient>
<linearGradient id="paint2_linear_147_265" x1="866.278" y1="366.371" x2="852.096" y2="393.779" gradientUnits="userSpaceOnUse">
<stop stop-color="#414241"/>
<stop offset="1" stop-color="#3E3E3E"/>
</linearGradient>
<linearGradient id="paint3_linear_147_265" x1="838.663" y1="367.629" x2="824.36" y2="394.762" gradientUnits="userSpaceOnUse">
<stop stop-color="#414241"/>
<stop offset="1" stop-color="#3E3E3E"/>
</linearGradient>
<linearGradient id="paint4_linear_147_265" x1="811.474" y1="371.192" x2="796.422" y2="399.003" gradientUnits="userSpaceOnUse">
<stop stop-color="#414241"/>
<stop offset="1" stop-color="#3E3E3E"/>
</linearGradient>
<linearGradient id="paint5_linear_147_265" x1="782.96" y1="376.001" x2="769.54" y2="402.625" gradientUnits="userSpaceOnUse">
<stop stop-color="#414241"/>
<stop offset="1" stop-color="#3E3E3E"/>
</linearGradient>
<linearGradient id="paint6_linear_147_265" x1="698.602" y1="380.81" x2="686.788" y2="406.114" gradientUnits="userSpaceOnUse">
<stop stop-color="#414241"/>
<stop offset="1" stop-color="#3E3E3E"/>
</linearGradient>
<linearGradient id="paint7_linear_147_265" x1="891.205" y1="371.192" x2="875.55" y2="398.01" gradientUnits="userSpaceOnUse">
<stop stop-color="#414241"/>
<stop offset="1" stop-color="#3E3E3E"/>
</linearGradient>
<linearGradient id="paint8_linear_147_265" x1="671.234" y1="380.786" x2="659.393" y2="406.058" gradientUnits="userSpaceOnUse">
<stop stop-color="#414241"/>
<stop offset="1" stop-color="#3E3E3E"/>
</linearGradient>
<linearGradient id="paint9_linear_147_265" x1="723.469" y1="379.594" x2="710.83" y2="405.51" gradientUnits="userSpaceOnUse">
<stop stop-color="#414241"/>
<stop offset="1" stop-color="#3E3E3E"/>
</linearGradient>
<linearGradient id="paint10_linear_147_265" x1="751.976" y1="379.621" x2="740.135" y2="404.893" gradientUnits="userSpaceOnUse">
<stop stop-color="#414241"/>
<stop offset="1" stop-color="#3E3E3E"/>
</linearGradient>
<linearGradient id="paint11_linear_147_265" x1="917.743" y1="387.851" x2="903.215" y2="413.028" gradientUnits="userSpaceOnUse">
<stop stop-color="#414241"/>
<stop offset="1" stop-color="#3E3E3E"/>
</linearGradient>
<linearGradient id="paint12_linear_147_265" x1="845.055" y1="561.273" x2="830.276" y2="586.178" gradientUnits="userSpaceOnUse">
<stop stop-color="#414241"/>
<stop offset="1" stop-color="#3E3E3E"/>
</linearGradient>
<linearGradient id="paint13_linear_147_265" x1="803.157" y1="530.575" x2="789.438" y2="554.554" gradientUnits="userSpaceOnUse">
<stop stop-color="#414241"/>
<stop offset="1" stop-color="#3E3E3E"/>
</linearGradient>
<linearGradient id="paint14_linear_147_265" x1="824.075" y1="544.835" x2="810.556" y2="569.545" gradientUnits="userSpaceOnUse">
<stop stop-color="#414241"/>
<stop offset="1" stop-color="#3E3E3E"/>
</linearGradient>
<linearGradient id="paint15_linear_147_265" x1="866.19" y1="585.306" x2="854.584" y2="609.309" gradientUnits="userSpaceOnUse">
<stop stop-color="#414241"/>
<stop offset="1" stop-color="#3E3E3E"/>
</linearGradient>
<linearGradient id="paint16_linear_147_265" x1="719.495" y1="500.928" x2="708.334" y2="523.89" gradientUnits="userSpaceOnUse">
<stop stop-color="#414241"/>
<stop offset="1" stop-color="#3E3E3E"/>
</linearGradient>
<linearGradient id="paint17_linear_147_265" x1="739.706" y1="507.961" x2="728.612" y2="530.973" gradientUnits="userSpaceOnUse">
<stop stop-color="#414241"/>
<stop offset="1" stop-color="#3E3E3E"/>
</linearGradient>
<linearGradient id="paint18_linear_147_265" x1="760.765" y1="515.018" x2="749.427" y2="537.821" gradientUnits="userSpaceOnUse">
<stop stop-color="#414241"/>
<stop offset="1" stop-color="#3E3E3E"/>
</linearGradient>
<linearGradient id="paint19_linear_147_265" x1="781.279" y1="523.436" x2="770.29" y2="546.276" gradientUnits="userSpaceOnUse">
<stop stop-color="#414241"/>
<stop offset="1" stop-color="#3E3E3E"/>
</linearGradient>
<linearGradient id="paint20_linear_147_265" x1="582.146" y1="237.269" x2="568.659" y2="295.364" gradientUnits="userSpaceOnUse">
<stop stop-color="#414241"/>
<stop offset="1" stop-color="#3E3E3E"/>
</linearGradient>
<clipPath id="clip0_147_265">
<rect width="1024" height="1024" fill="white"/>
</clipPath>
</defs>
</svg>
