<?xml version="1.0" encoding="UTF-8" standalone="no"?>
<!-- Created with Inkscape (http://www.inkscape.org/) -->

<svg
   width="210mm"
   height="297mm"
   viewBox="0 0 210 297"
   version="1.1"
   id="svg5"
   inkscape:version="1.2.2 (1:1.2.2+202212051550+b0a8486541)"
   sodipodi:docname="vocab-tag.svg"
   xmlns:inkscape="http://www.inkscape.org/namespaces/inkscape"
   xmlns:sodipodi="http://sodipodi.sourceforge.net/DTD/sodipodi-0.dtd"
   xmlns="http://www.w3.org/2000/svg"
   xmlns:svg="http://www.w3.org/2000/svg">
  <sodipodi:namedview
     id="namedview7"
     pagecolor="#505050"
     bordercolor="#eeeeee"
     borderopacity="1"
     inkscape:showpageshadow="0"
     inkscape:pageopacity="0"
     inkscape:pagecheckerboard="0"
     inkscape:deskcolor="#505050"
     inkscape:document-units="mm"
     showgrid="false"
     inkscape:zoom="2.1291572"
     inkscape:cx="171.42933"
     inkscape:cy="193.73863"
     inkscape:window-width="1920"
     inkscape:window-height="1020"
     inkscape:window-x="0"
     inkscape:window-y="0"
     inkscape:window-maximized="1"
     inkscape:current-layer="layer1" />
  <defs
     id="defs2" />
  <g
     inkscape:label="Layer 1"
     inkscape:groupmode="layer"
     id="layer1">
    <rect
       style="fill:#ff8080;stroke:none;stroke-width:1.565;stroke-dasharray:none;stroke-opacity:1;fill-opacity:0"
       id="rect790"
       width="67.242554"
       height="67.242554"
       x="14.861292"
       y="4.3405113"
       ry="0.23964004" />
    <path
       id="rect234"
       style="fill:#f9fbff;stroke:#000000;stroke-width:2.01092;stroke-linejoin:round;stroke-dasharray:none;stroke-opacity:1"
       d="m 15.908384,5.3459598 2.964513,24.7375182 c -0.1204,0.120843 -0.120038,0.315318 8.05e-4,0.435717 l 39.745584,39.59822 c 0.120844,0.1204 0.315319,0.120039 0.435718,-8.04e-4 L 81.056781,48.032954 40.8742,8.0002975 Z M 27.023827,16.420188 a 4.642894,4.642894 0 0 1 6.566284,-0.01266 4.642894,4.642894 0 0 1 0.01173,6.566285 4.642894,4.642894 0 0 1 -6.565815,0.01219 4.642894,4.642894 0 0 1 -0.01219,-6.565816 z"
       inkscape:export-filename="vocab-tag@2x.png"
       inkscape:export-xdpi="12.087584"
       inkscape:export-ydpi="12.087584" />
  </g>
</svg>
